<svg xmlns="http://www.w3.org/2000/svg" viewBox="0 0 24 24" fill="none" stroke="currentColor" stroke-width="1.5">
  <circle cx="12" cy="12" r="3"/>
  <path d="M13 2C12.5523 2 12 2.44772 12 3V4.06189C10.8868 4.25824 9.86616 4.71256 9 5.36364L8.29289 4.65653C7.90237 4.26601 7.2692 4.26601 6.87868 4.65653L5.65685 5.87831C5.26633 6.26883 5.26633 6.902 5.65685 7.29252L6.36396 7.99963C5.71288 8.86616 5.25856 9.88678 5.06221 11H4C3.44772 11 3 11.4477 3 12C3 12.5523 3.44772 13 4 13H5.06221C5.25856 14.1132 5.71288 15.1338 6.36396 16.0004L5.65685 16.7075C5.26633 17.098 5.26633 17.7312 5.65685 18.1217L6.87868 19.3435C7.2692 19.734 7.90237 19.734 8.29289 19.3435L9 18.6364C9.86616 19.2875 10.8868 19.7418 12 19.9381V21C12 21.5523 12.4477 22 13 22C13.5523 22 14 21.5523 14 21V19.9381C15.1132 19.7418 16.1338 19.2875 17 18.6364L17.7075 19.3435C18.098 19.734 18.7312 19.734 19.1217 19.3435L20.3435 18.1217C20.734 17.7312 20.734 17.098 20.3435 16.7075L19.6364 16.0004C20.2875 15.1338 20.7418 14.1132 20.9381 13H22C22.5523 13 23 12.5523 23 12C23 11.4477 22.5523 11 22 11H20.9381C20.7418 9.88678 20.2875 8.86616 19.6364 7.99963L20.3435 7.29252C20.734 6.902 20.734 6.26883 20.3435 5.87831L19.1217 4.65653C18.7312 4.26601 18.098 4.26601 17.7075 4.65653L17 5.36364C16.1338 4.71256 15.1132 4.25824 14 4.06189V3C14 2.44772 13.5523 2 13 2Z" stroke-linejoin="round"/>
</svg>
